<svg id="Layer_1" xmlns="http://www.w3.org/2000/svg" xmlns:xlink="http://www.w3.org/1999/xlink" viewBox="0 0 2254.35 1940.59"><defs><style>.cls-1{mask:url(#mask);}.cls-2{filter:url(#luminosity-noclip-2);}.cls-3{fill:#b70202;}.cls-4{fill:#501414;}.cls-5{fill:url(#linear-gradient-3);}.cls-6{fill:url(#linear-gradient-2);}.cls-7{fill:url(#linear-gradient);mix-blend-mode:multiply;}.cls-8{mask:url(#mask-1);}</style><filter id="luminosity-noclip-2" x="309.02" y="948.35" width="1945.32" height="963.37" color-interpolation-filters="sRGB" filterUnits="userSpaceOnUse"><feFlood flood-color="#fff" result="bg"></feFlood><feBlend in="SourceGraphic" in2="bg"></feBlend></filter><filter id="luminosity-noclip-3" x="309.02" y="-9171.88" width="1945.32" height="32766" color-interpolation-filters="sRGB" filterUnits="userSpaceOnUse"><feFlood flood-color="#fff" result="bg"></feFlood><feBlend in="SourceGraphic" in2="bg"></feBlend></filter><mask id="mask-1" x="309.02" y="-9171.88" width="1945.32" height="32766" maskUnits="userSpaceOnUse"></mask><linearGradient id="linear-gradient" x1="1281.69" y1="1911.72" x2="1281.69" y2="948.35" gradientTransform="matrix(1, 0, 0, 1, 0, 0)" gradientUnits="userSpaceOnUse"><stop offset="0" stop-color="#000"></stop><stop offset=".17" stop-color="#2e2e2e"></stop><stop offset=".58" stop-color="#9d9d9d"></stop><stop offset=".87" stop-color="#e3e3e3"></stop><stop offset="1" stop-color="#fff"></stop></linearGradient><mask id="mask" x="309.02" y="948.35" width="1945.32" height="963.37" maskUnits="userSpaceOnUse"><g class="cls-2"><g class="cls-8"><rect class="cls-7" x="309.02" y="948.35" width="1945.32" height="963.37"></rect></g></g></mask><linearGradient id="linear-gradient-2" x1="309.02" y1="1430.03" x2="2254.35" y2="1430.03" gradientTransform="matrix(1, 0, 0, 1, 0, 0)" gradientUnits="userSpaceOnUse"><stop offset=".03" stop-color="#942100"></stop><stop offset="1" stop-color="#d40500" stop-opacity=".54"></stop></linearGradient><linearGradient id="linear-gradient-3" x1="0" y1="1622.96" x2="878.93" y2="1622.96" xlink:href="#linear-gradient-2"></linearGradient></defs><g><g><g><g><path class="cls-3" d="M1273.4,1755.59c6.23,.46,11.65-4.21,12.11-10.44,.46-6.23-4.21-11.65-10.44-12.11-4.15-.31-7.93,1.67-10.14,4.87-87.25-2.01-172.22-19.82-252.84-52.99-.94-4.9-5.05-8.76-10.25-9.15-6.23-.46-11.65,4.21-12.11,10.44-.46,6.23,4.21,11.65,10.44,12.11,2.61,.19,5.08-.53,7.1-1.88,82.09,33.78,168.61,51.91,257.45,53.95,1.85,2.89,4.99,4.91,8.67,5.19Z"></path><path class="cls-3" d="M1414.08,215.14c-1.59-3.81-5.2-6.62-9.59-6.94-6.23-.46-11.65,4.21-12.11,10.44-.46,6.23,4.21,11.65,10.44,12.11,3.44,.26,6.64-1.06,8.88-3.35,89.78,18.11,172.97,54.2,247.55,107.41-.25,6.06,4.35,11.28,10.44,11.73,6.23,.46,11.65-4.21,12.11-10.44,.46-6.23-4.21-11.65-10.44-12.11-1.69-.13-3.31,.14-4.8,.7-37.67-26.85-78.14-49.74-120.44-68.1-42.32-18.36-86.69-32.29-132.05-41.45Z"></path><path class="cls-3" d="M1077.79,1660.3c1.27,4.42,5.17,7.8,10.02,8.16,6.23,.46,11.65-4.21,12.11-10.44,.46-6.23-4.21-11.65-10.44-12.11-2.98-.22-5.77,.74-7.92,2.48-18.62-6.03-37.16-12.97-55.23-20.68-75.02-32.01-142.5-77.19-200.72-134.37,.09-.45,.16-.91,.2-1.37,.46-6.23-4.21-11.65-10.44-12.11-6.23-.46-11.65,4.21-12.11,10.44-.46,6.23,4.21,11.65,10.44,12.11,1.07,.08,2.11,0,3.11-.21,59.35,58.3,128.14,104.37,204.62,137,18.45,7.87,37.37,14.95,56.36,21.1Z"></path><path class="cls-3" d="M844.67,1449.3c-.46,6.23,4.21,11.65,10.44,12.11,6.23,.46,11.65-4.21,12.11-10.44,.46-6.23-4.21-11.65-10.44-12.11-1-.07-1.98,0-2.93,.18-31.37-32.68-58.87-68.65-81.91-107.16,.61-1.25,1.01-2.64,1.12-4.12,.46-6.23-4.21-11.65-10.44-12.11-6.23-.46-11.65,4.21-12.11,10.44-.46,6.23,4.21,11.65,10.44,12.11,.08,0,.15,0,.22,0,23.55,39.37,51.66,76.15,83.73,109.55-.11,.5-.2,1.02-.23,1.54Z"></path><path class="cls-3" d="M1619.14,358.43c-6.23-.46-11.65,4.21-12.11,10.44-.46,6.23,4.21,11.65,10.44,12.11,1.77,.13,3.47-.16,5.01-.78,28.19,19.84,54.81,42.27,79.34,66.85-.1,.49-.18,.98-.22,1.49-.46,6.23,4.21,11.65,10.44,12.11,6.23,.46,11.65-4.21,12.11-10.44,.46-6.23-4.21-11.65-10.44-12.11-1.02-.08-2.02,0-2.99,.19-25.07-25.13-52.29-48.07-81.13-68.35,.12-5.96-4.43-11.05-10.45-11.5Z"></path><path class="cls-3" d="M947.69,360.66c-1.09-.45-2.26-.75-3.5-.84-6.23-.46-11.65,4.21-12.11,10.44-.46,6.23,4.21,11.65,10.44,12.11,6.23,.46,11.65-4.21,12.11-10.44,.02-.3,.02-.6,.02-.9,29.75-19.68,61.51-36.79,94.56-50.89,36.99-15.79,75.49-27.77,114.57-35.7,1.85,1.88,4.36,3.13,7.2,3.34,6.23,.46,11.65-4.21,12.11-10.44,.46-6.23-4.21-11.65-10.44-12.11-4.99-.37-9.46,2.56-11.27,6.95-39.93,8.09-79.27,20.34-117.07,36.47-33.76,14.41-66.22,31.88-96.62,52Z"></path><path class="cls-3" d="M763.72,1206.18c-1.26,1.67-2.08,3.71-2.25,5.96-.46,6.23,4.21,11.65,10.44,12.11,6.23,.46,11.65-4.21,12.11-10.44,.41-5.57-3.28-10.48-8.52-11.79-19.39-56.34-29.23-115.49-29.23-175.96v-65.64c2.81-1.87,4.76-4.95,5.03-8.57,.46-6.23-4.21-11.65-10.44-12.11-6.23-.46-11.65,4.21-12.11,10.44-.31,4.22,1.74,8.07,5.03,10.25v65.63c0,61.89,10.07,122.43,29.94,180.11Z"></path><path class="cls-3" d="M1530.24,1516.31c1.35,.72,2.86,1.19,4.49,1.31,6.22,.46,11.65-4.21,12.11-10.44,.46-6.23-4.21-11.65-10.44-12.11-6.16-.46-11.52,4.12-12.08,10.24-69.51,35.44-144.65,54.83-223.49,57.64-6.38,.23-12.83,.34-19.19,.34-72.54,0-143.05-14.39-209.56-42.77-63.94-27.28-121.23-66.23-170.28-115.77-18.71-18.9-36.08-39.23-51.74-60.53,.37-.99,.61-2.04,.7-3.14,.46-6.23-4.21-11.65-10.44-12.11-6.23-.46-11.65,4.21-12.11,10.44-.46,6.23,4.21,11.65,10.44,12.11,.43,.03,.86,.03,1.29,.02,16.03,21.82,33.82,42.64,52.99,62,50.19,50.69,108.81,90.55,174.25,118.47,68.07,29.05,140.23,43.77,214.47,43.77,6.51,0,13.11-.12,19.64-.35,41.69-1.48,83.1-7.68,123.07-18.41,36.59-9.82,72.17-23.51,105.9-40.71Z"></path><path class="cls-3" d="M1499.98,363.67c-.91-4.93-5.03-8.82-10.27-9.21-6.22-.46-11.65,4.21-12.11,10.44-.46,6.23,4.21,11.65,10.44,12.11,2.59,.19,5.04-.51,7.05-1.84,64.36,27.96,121.99,67.98,171.4,119.06,54.45,56.3,94.97,121.78,120.54,194.75-1.3,1.69-2.15,3.77-2.32,6.05-.46,6.23,4.21,11.65,10.44,12.11,6.23,.46,11.65-4.21,12.11-10.44,.41-5.53-3.23-10.41-8.41-11.76-12.41-35.39-28.53-69.56-47.98-101.68-21.25-35.09-46.62-67.97-75.4-97.72-50.58-52.29-109.58-93.25-175.49-121.87Z"></path><path class="cls-3" d="M1633.58,1368.2c28.19-29.15,52.6-61.51,72.67-96.29,5.51-.39,10.05-4.76,10.47-10.43,.46-6.23-4.21-11.65-10.44-12.11-6.23-.46-11.65,4.21-12.11,10.44-.16,2.14,.3,4.17,1.21,5.95-19.55,33.87-43.32,65.37-70.77,93.76-84.13,86.98-196.22,138.16-316.52,144.77-1.89-2.58-4.84-4.35-8.28-4.6-6.23-.46-11.65,4.21-12.11,10.44-.46,6.23,4.21,11.65,10.44,12.11,4.4,.33,8.4-1.92,10.52-5.47,123.5-6.75,238.56-59.28,324.92-148.56Z"></path><path class="cls-3" d="M1771.32,866.38c0-80.97-20.06-160.78-58.07-231.47,.7-1.33,1.15-2.82,1.27-4.42,.46-6.23-4.21-11.65-10.44-12.11-6.23-.46-11.65,4.21-12.11,10.44-.46,6.19,4.16,11.58,10.33,12.09,37,68.85,56.53,146.59,56.53,225.46v161.5c0,31.94-3.18,63.81-9.44,94.9-4.05,1.47-7.08,5.2-7.42,9.78-.46,6.23,4.21,11.65,10.44,12.11,6.23,.46,11.65-4.21,12.11-10.44,.24-3.25-.93-6.28-2.98-8.5,6.49-32.05,9.79-64.91,9.79-97.85v-161.5Z"></path><path class="cls-3" d="M792.06,1005.43c-2.81,1.87-4.76,4.95-5.03,8.57-.46,6.23,4.21,11.65,10.44,12.11,6.23,.46,11.65-4.21,12.11-10.44,.31-4.22-1.74-8.07-5.03-10.25v-137.23c0-24.9,1.91-49.84,5.67-74.28,3.91-1.54,6.8-5.2,7.13-9.67,.46-6.23-4.21-11.65-10.44-12.11-6.23-.46-11.65,4.21-12.11,10.44-.25,3.36,1.01,6.48,3.19,8.72-3.93,25.29-5.93,51.12-5.93,76.9v137.24Z"></path><path class="cls-3" d="M899.37,695.7c5.08-.79,9.14-4.98,9.53-10.32,.46-6.23-4.21-11.65-10.44-12.11-6.23-.46-11.65,4.21-12.11,10.44-.18,2.47,.45,4.81,1.67,6.77-25.02,55.8-37.7,115.54-37.7,177.71v7.37c-2.81,1.87-4.76,4.95-5.03,8.57-.46,6.23,4.21,11.65,10.44,12.11,6.23,.46,11.65-4.21,12.11-10.44,.31-4.22-1.74-8.07-5.03-10.25v-7.36c0-60.36,12.3-118.33,36.56-172.49Z"></path><path class="cls-3" d="M908.6,957.33c-2.81,1.87-4.76,4.95-5.03,8.57-.46,6.23,4.21,11.65,10.44,12.11s11.65-4.21,12.11-10.44c.31-4.22-1.74-8.07-5.03-10.25v-89.13c0-96.53,37.27-187.33,104.94-255.69,20.67-20.87,43.68-39.07,68.49-54.21,1.27,.63,2.69,1.04,4.19,1.15,6.23,.46,11.65-4.21,12.11-10.44,.46-6.23-4.21-11.65-10.44-12.11-6.23-.46-11.65,4.21-12.11,10.44,0,.05,0,.09,0,.14-25.77,15.69-49.67,34.57-71.11,56.24-70,70.71-108.55,164.63-108.55,264.47v89.14Z"></path><path class="cls-3" d="M1294.61,1388.24c-4.32,.15-8.68,.23-12.97,.23-48.83,0-96.25-9.67-140.96-28.75-43.03-18.36-81.61-44.59-114.65-77.97-34.01-34.35-60.3-74.1-78.26-118.27,1.13-1.61,1.87-3.54,2.03-5.65,.46-6.23-4.21-11.65-10.44-12.11-6.23-.46-11.65,4.21-12.11,10.44-.42,5.7,3.46,10.71,8.89,11.87,18.58,45.76,45.8,86.94,81.01,122.5,34.19,34.53,74.1,61.68,118.63,80.67,46.26,19.74,95.33,29.75,145.86,29.75,4.43,0,8.95-.08,13.42-.24,96.79-3.45,187.27-43.77,254.76-113.55,26.35-27.24,48.22-57.96,65.12-91.4,4.97-.88,8.91-5.02,9.31-10.28,.46-6.23-4.21-11.65-10.44-12.11-6.23-.46-11.65,4.21-12.11,10.44-.19,2.55,.49,4.95,1.78,6.94-16.29,32.08-37.32,61.56-62.63,87.73-65.24,67.44-152.68,106.42-246.23,109.75Z"></path><path class="cls-3" d="M1505.31,1231.18c-.34-.06-.68-.1-1.04-.13-6.23-.46-11.65,4.21-12.11,10.44-.46,6.23,4.21,11.65,10.44,12.11,6.23,.46,11.65-4.21,12.11-10.44,.09-1.19-.01-2.35-.28-3.45,52.98-58.13,82.06-132.97,82.06-211.83v-91.32c2.81-1.87,4.76-4.95,5.03-8.57,.46-6.23-4.21-11.65-10.44-12.11-6.23-.46-11.65,4.21-12.11,10.44-.31,4.22,1.74,8.07,5.03,10.25v91.31c0,75.67-27.89,147.49-78.7,203.3Z"></path><path class="cls-3" d="M1181.52,1264.02c31.61,13.49,65.17,20.35,99.75,20.39,1.86,2.81,4.95,4.76,8.58,5.03,6.23,.46,11.65-4.21,12.11-10.44,.46-6.23-4.21-11.65-10.44-12.11-4.22-.31-8.06,1.74-10.25,5.02-32.89-.05-64.8-6.57-94.85-19.39-29.09-12.41-55.19-30.17-77.57-52.77-30.95-31.26-52.81-69.89-63.56-112.14,1.79-1.84,2.98-4.29,3.18-7.05,.46-6.23-4.21-11.65-10.44-12.11-6.23-.46-11.65,4.21-12.11,10.44-.38,5.07,2.65,9.6,7.15,11.36,11.26,44.59,34.27,85.33,66.9,118.29,23.52,23.76,50.96,42.42,81.54,55.47Z"></path><path class="cls-3" d="M1497.57,727.03c-.18-.01-.35,0-.53-.01-9.02-13.87-19.41-26.92-31-38.9-46.43-48-108.62-75.74-175.14-78.11-11.62-.41-23.25-.04-34.69,1.09-1.89-2.23-4.64-3.74-7.79-3.97-6.23-.46-11.65,4.21-12.11,10.44-.46,6.23,4.21,11.65,10.44,12.11,4.69,.35,8.92-2.22,10.92-6.17,10.81-1.05,21.8-1.41,32.79-1.01,63.27,2.25,122.44,28.64,166.61,74.31,10.98,11.35,20.82,23.73,29.38,36.86-.53,1.17-.88,2.45-.98,3.81-.46,6.23,4.21,11.65,10.44,12.11,6.23,.46,11.65-4.21,12.11-10.44,.46-6.23-4.21-11.65-10.44-12.11Z"></path><path class="cls-3" d="M1141.69,937.72c-2.81,1.87-4.76,4.95-5.03,8.57-.46,6.23,4.21,11.65,10.44,12.11,6.23,.46,11.65-4.21,12.11-10.44,.31-4.22-1.74-8.07-5.03-10.25v-71.33c0-27.34,8.84-53.92,25.04-75.79,.05,0,.1,.02,.16,.02,6.23,.46,11.65-4.21,12.11-10.44,.46-6.23-4.21-11.65-10.44-12.11-6.23-.46-11.65,4.21-12.11,10.44-.11,1.5,.08,2.94,.51,4.29-17.96,24.09-27.76,53.41-27.76,83.59v71.34Z"></path><path class="cls-3" d="M1281.69,1167.87c29.39,0,58.14-9.36,81.89-26.51,.72,.2,1.47,.34,2.25,.4,6.23,.46,11.65-4.21,12.11-10.44,.46-6.23-4.21-11.65-10.44-12.11-6.23-.46-11.65,4.21-12.11,10.44-.05,.74-.03,1.46,.05,2.17-21.47,15.25-47.33,23.57-73.76,23.57-70.31,0-127.51-57.2-127.51-127.51v-11.03c2.81-1.87,4.76-4.95,5.03-8.57,.46-6.23-4.21-11.65-10.44-12.11-6.23-.46-11.65,4.21-12.11,10.44-.31,4.22,1.74,8.07,5.03,10.25v11.02c0,77.19,62.8,139.99,139.99,139.99Z"></path><path class="cls-3" d="M1394.46,1087.33c-5.55,.35-10.14,4.73-10.56,10.43-.46,6.23,4.21,11.65,10.44,12.11,6.23,.46,11.65-4.21,12.11-10.44,.16-2.1-.28-4.1-1.16-5.86,10.75-20.16,16.4-42.68,16.4-65.7v-63.85c2.81-1.87,4.76-4.95,5.03-8.57,.46-6.23-4.21-11.65-10.44-12.11-6.23-.46-11.65,4.21-12.11,10.44-.31,4.22,1.74,8.07,5.03,10.25v63.84c0,20.82-5.07,41.19-14.74,59.45Z"></path><path class="cls-3" d="M1281.69,726.38c-25.16,0-49.51,6.67-70.99,19.37-1.13-.49-2.36-.81-3.65-.91-6.23-.46-11.65,4.21-12.11,10.44-.46,6.23,4.21,11.65,10.44,12.11,6.23,.46,11.65-4.21,12.11-10.44,.02-.24,.01-.47,.02-.71,19.45-11.39,41.45-17.37,64.19-17.37,70.31,0,127.51,57.2,127.51,127.51v1.41c-2.81,1.87-4.76,4.95-5.03,8.57-.46,6.23,4.21,11.65,10.44,12.11,6.23,.46,11.65-4.21,12.11-10.44,.31-4.22-1.74-8.07-5.03-10.25v-1.41c0-77.19-62.8-139.99-139.99-139.99Z"></path><path class="cls-3" d="M1290.66,1096.51c-1.89-2.48-4.79-4.18-8.14-4.43-6.23-.46-11.65,4.21-12.11,10.44-.46,6.23,4.21,11.65,10.44,12.11,4.46,.33,8.5-1.99,10.61-5.61,40.47-4.85,71.95-39.38,71.95-81.13v-161.5c0-5.79-.62-11.52-1.81-17.13,1.46-1.75,2.41-3.94,2.59-6.38,.46-6.23-4.21-11.65-10.44-12.11-6.23-.46-11.65,4.21-12.11,10.44-.4,5.36,3.02,10.12,7.96,11.63,.88,4.44,1.33,8.97,1.33,13.55v161.5c0,35.13-26.31,64.21-60.26,68.63Z"></path><path class="cls-3" d="M1281.69,842.93c-12.93,0-23.45,10.52-23.45,23.45v65.86c-2.81,1.87-4.76,4.95-5.03,8.57-.46,6.23,4.21,11.65,10.44,12.11,6.23,.46,11.65-4.21,12.11-10.44,.31-4.22-1.74-8.07-5.03-10.25v-65.86c0-6.04,4.92-10.96,10.96-10.96s10.96,4.92,10.96,10.96v35.76c-2.81,1.87-4.76,4.95-5.03,8.57-.46,6.23,4.21,11.65,10.44,12.11,6.23,.46,11.65-4.21,12.11-10.44,.31-4.22-1.74-8.07-5.03-10.25v-35.75c0-12.93-10.52-23.45-23.45-23.45Z"></path><path class="cls-3" d="M1281.69,1051.32c12.93,0,23.45-10.52,23.45-23.45v-22.5c2.81-1.87,4.76-4.95,5.03-8.57,.46-6.23-4.21-11.65-10.44-12.11-6.23-.46-11.65,4.21-12.11,10.44-.31,4.22,1.74,8.07,5.03,10.25v22.49c0,6.04-4.92,10.96-10.96,10.96s-10.96-4.92-10.96-10.96v-33.88c2.81-1.87,4.76-4.95,5.03-8.57,.46-6.23-4.21-11.65-10.44-12.11-6.23-.46-11.65,4.21-12.11,10.44-.31,4.22,1.74,8.07,5.03,10.25v33.87c0,12.93,10.52,23.45,23.45,23.45Z"></path><path class="cls-3" d="M1364.63,107.34c3.48,0,6.58-1.57,8.66-4.04,17.93,2.13,35.89,4.91,53.58,8.29,1.68,4.14,5.73,7.06,10.47,7.06,6.24,0,11.3-5.06,11.3-11.3s-5.06-11.3-11.3-11.3c-3.12,0-5.94,1.26-7.99,3.31-18.05-3.45-36.37-6.28-54.67-8.46-1.87-3.65-5.67-6.15-10.05-6.15-6.24,0-11.3,5.06-11.3,11.3s5.06,11.3,11.3,11.3Z"></path><path class="cls-3" d="M1532.23,206.19c2.45,0,4.72-.79,6.57-2.12,17.2,6.67,34.24,14.07,50.86,22.08,.72,5.55,5.45,9.83,11.2,9.83,6.24,0,11.3-5.06,11.3-11.3s-5.06-11.3-11.3-11.3c-2.08,0-4.03,.57-5.7,1.56-16.96-8.17-34.36-15.72-51.91-22.53-1.13-5.04-5.63-8.81-11.02-8.81-6.24,0-11.3,5.06-11.3,11.3s5.06,11.3,11.3,11.3Z"></path><path class="cls-3" d="M1208.92,142.04c-6.24,0-11.3,5.06-11.3,11.3s5.06,11.3,11.3,11.3c4.22,0,7.9-2.32,9.84-5.75,20.79-1.83,41.9-2.75,62.88-2.75,8.44,0,16.99,.15,25.43,.45,43.31,1.54,86.51,7.02,128.56,16.29,1.62,4.26,5.73,7.3,10.56,7.3,6.24,0,11.3-5.06,11.3-11.3s-5.06-11.3-11.3-11.3c-3.02,0-5.77,1.2-7.79,3.13-42.81-9.44-86.79-15.02-130.88-16.59-8.59-.31-17.29-.46-25.88-.46-21.28,0-42.69,.94-63.78,2.78-2.07-2.67-5.3-4.4-8.94-4.4Z"></path><path class="cls-3" d="M909.74,264.85c6.23,.46,11.65-4.21,12.11-10.44,0-.1,0-.19,0-.29,26.14-15.38,53.55-29.21,81.61-41.19,40.97-17.48,83.54-31.1,126.66-40.54,1.85,1.88,4.36,3.12,7.19,3.33,6.23,.46,11.65-4.21,12.11-10.44,.46-6.23-4.21-11.65-10.44-12.11-5-.37-9.47,2.57-11.28,6.96-43.98,9.6-87.38,23.48-129.15,41.3-28.57,12.19-56.48,26.28-83.1,41.94-1.24-.59-2.6-.98-4.05-1.09-6.23-.46-11.65,4.21-12.11,10.44-.46,6.23,4.21,11.65,10.44,12.11Z"></path><path class="cls-3" d="M806.62,421.65c6.23,.46,11.65-4.21,12.11-10.44,.08-1.11,0-2.19-.23-3.22,.16-.16,.32-.32,.48-.48,45.89-46.35,98-85.28,155.01-115.84,1.37,.75,2.91,1.23,4.57,1.36,6.23,.46,11.65-4.21,12.11-10.44,.46-6.23-4.21-11.65-10.44-12.11-6.13-.45-11.46,4.07-12.07,10.14-58.13,31.15-111.27,70.84-158.06,118.1-.18,.18-.36,.37-.54,.55-.41-.08-.83-.14-1.27-.17-6.23-.46-11.65,4.21-12.11,10.44-.46,6.23,4.21,11.65,10.44,12.11Z"></path><path class="cls-3" d="M1306.05,196.9c-4.29-.32-8.19,1.8-10.36,5.18-4.69-.1-9.39-.15-14.05-.15-62.3,0-123.85,8.64-183.09,25.68-1.75-1.48-3.96-2.44-6.42-2.62-6.23-.46-11.65,4.21-12.11,10.44-.46,6.23,4.21,11.65,10.44,12.11,5.36,.4,10.11-3.01,11.63-7.94,58.09-16.7,118.45-25.17,179.55-25.17,4.74,0,9.51,.06,14.27,.16,1.88,2.72,4.92,4.6,8.47,4.87,6.23,.46,11.65-4.21,12.11-10.44,.46-6.23-4.21-11.65-10.44-12.11Z"></path><path class="cls-3" d="M1442.74,276.81c-3.16-.23-6.12,.86-8.32,2.81-42.65-11.05-86.69-17.45-131.06-19.03-7.21-.26-14.52-.39-21.72-.39-11.51,0-23.11,.33-34.59,.98-1.88-2.67-4.9-4.51-8.41-4.77-6.23-.46-11.65,4.21-12.11,10.44-.46,6.23,4.21,11.65,10.44,12.11,4.33,.32,8.27-1.85,10.42-5.29,11.37-.65,22.85-.98,34.25-.98,7.06,0,14.21,.13,21.28,.38,43.43,1.55,86.53,7.81,128.27,18.61,1.41,4.18,5.21,7.32,9.88,7.67,6.23,.46,11.65-4.21,12.11-10.44,.46-6.23-4.21-11.65-10.44-12.11Z"></path><path class="cls-3" d="M745.76,606.64c6.23,.46,11.65-4.21,12.11-10.44,.17-2.28-.36-4.46-1.39-6.32,27.32-51.76,62.25-99.28,103.92-141.37,7.31-7.38,14.87-14.63,22.55-21.62,.65,.17,1.31,.29,2,.34,6.23,.46,11.65-4.21,12.11-10.44,.46-6.23-4.21-11.65-10.44-12.11-6.23-.46-11.65,4.21-12.11,10.44-.06,.85-.02,1.67,.09,2.48-7.86,7.16-15.6,14.57-23.08,22.13-42.56,42.99-78.23,91.54-106.13,144.41-5.33,.57-9.65,4.86-10.06,10.39-.46,6.23,4.21,11.65,10.44,12.11Z"></path><path class="cls-3" d="M898.2,473.84c-6.23-.46-11.65,4.21-12.11,10.44-.46,6.23,4.21,11.65,10.44,12.11,6.23,.46,11.65-4.21,12.11-10.44,.08-1.04,0-2.05-.19-3.02,47.55-46.41,102.55-83.13,163.63-109.19,61.76-26.35,127.11-40.67,194.23-42.56,8.37-.23,16.83-.27,25.25-.12,1.85,2.88,4.98,4.9,8.66,5.17,6.23,.46,11.65-4.21,12.11-10.44,.46-6.23-4.21-11.65-10.44-12.11-4.16-.31-7.95,1.68-10.15,4.89-8.6-.16-17.24-.12-25.79,.12-68.69,1.93-135.57,16.58-198.78,43.56-62.54,26.68-118.85,64.28-167.52,111.81-.47-.1-.96-.18-1.45-.21Z"></path><path class="cls-3" d="M814.68,704.81c-.46,6.23,4.21,11.65,10.44,12.11,6.23,.46,11.65-4.21,12.11-10.44,.21-2.8-.63-5.44-2.18-7.54,23.69-63.19,60.04-119.83,108.17-168.44,35.98-36.34,77.08-66.38,122.28-89.4,1.43,.82,3.05,1.36,4.8,1.49,6.23,.46,11.65-4.21,12.11-10.44,.46-6.23-4.21-11.65-10.44-12.11-6.03-.45-11.3,3.93-12.04,9.87-46.43,23.64-88.65,54.49-125.6,91.8-49.4,49.9-86.71,108.04-111.02,172.93-4.65,1.11-8.26,5.13-8.64,10.15Z"></path><path class="cls-3" d="M910.44,639.87c-.46,6.23,4.21,11.65,10.44,12.11,6.23,.46,11.65-4.21,12.11-10.44,.14-1.9-.2-3.72-.92-5.36,5.82-8.81,12-17.44,18.48-25.81,6.22,.45,11.63-4.22,12.09-10.44,.46-6.23-4.21-11.65-10.44-12.11-6.23-.46-11.65,4.21-12.11,10.44-.12,1.56,.09,3.08,.57,4.47-6.7,8.65-13.08,17.57-19.09,26.67-5.81,.06-10.7,4.56-11.14,10.46Z"></path><path class="cls-3" d="M1371.1,439.06c-3.5-.26-6.75,1.11-9,3.46-21.35-4.02-43.16-6.45-64.97-7.22-5.14-.18-10.35-.28-15.49-.28-58.42,0-115.19,11.58-168.72,34.43-46.59,19.88-88.85,47.5-125.75,82.16-.53-.12-1.07-.21-1.63-.25-6.23-.46-11.65,4.21-12.11,10.44-.46,6.23,4.21,11.65,10.44,12.11,6.23,.46,11.65-4.21,12.11-10.44,.07-.97,0-1.92-.16-2.84,35.81-33.61,76.81-60.4,122.01-79.69,51.97-22.18,107.09-33.42,163.82-33.42,4.99,0,10.05,.09,15.05,.27,21.22,.76,42.44,3.12,63.21,7.03,1.62,3.74,5.2,6.47,9.54,6.79,6.23,.46,11.65-4.21,12.11-10.44,.46-6.23-4.21-11.65-10.44-12.11Z"></path><path class="cls-3" d="M1637.56,551.55c6.23,.46,11.65-4.21,12.11-10.44,.46-6.23-4.21-11.65-10.44-12.11-.92-.07-1.83-.01-2.7,.14-.98-1.03-1.96-2.07-2.94-3.08-88.56-91.56-207.31-144.47-334.38-149-5.83-.21-11.74-.31-17.57-.31-28.34,0-56.64,2.45-84.27,7.26-1.86-1.94-4.41-3.23-7.3-3.44-6.23-.46-11.65,4.21-12.11,10.44-.46,6.23,4.21,11.65,10.44,12.11,4.94,.37,9.36-2.51,11.21-6.82,26.89-4.68,54.44-7.05,82.02-7.05,5.68,0,11.44,.1,17.12,.31,123.83,4.41,239.55,55.97,325.85,145.2,.94,.97,1.87,1.95,2.8,2.93-.14,.57-.24,1.16-.29,1.77-.46,6.23,4.21,11.65,10.44,12.11Z"></path><path class="cls-3" d="M1713.04,908.02v-41.64c0-112.43-43.09-218.9-121.35-299.81-15.7-16.23-32.69-31.28-50.61-44.82,.31-6.11-4.31-11.39-10.44-11.84-6.23-.46-11.65,4.21-12.11,10.44-.46,6.23,4.21,11.65,10.44,12.11,1.65,.12,3.24-.12,4.7-.66,17.36,13.13,33.83,27.72,49.06,43.46,75.99,78.56,117.83,181.95,117.83,291.13v41.65c-2.81,1.87-4.76,4.95-5.03,8.57-.46,6.23,4.21,11.65,10.44,12.11,6.23,.46,11.65-4.21,12.11-10.44,.31-4.22-1.74-8.07-5.03-10.25Z"></path><path class="cls-3" d="M1707.64,1016.6c-6.23-.46-11.65,4.21-12.11,10.44-.31,4.17,1.69,7.98,4.92,10.18-2.32,105.72-43.91,205.47-117.73,281.79-51.06,52.78-114.67,91.12-184.46,111.29-1.77-1.54-4.03-2.55-6.55-2.74-6.23-.46-11.65,4.21-12.11,10.44-.46,6.23,4.21,11.65,10.44,12.11,5.3,.39,10-2.94,11.57-7.78,71.93-20.76,137.49-60.26,190.09-114.64,76.05-78.63,118.89-181.4,121.24-290.33,2.86-1.86,4.86-4.97,5.14-8.64,.46-6.23-4.21-11.65-10.44-12.11Z"></path><path class="cls-3" d="M1824.18,855.11c-6.23-.46-11.65,4.21-12.11,10.44-.31,4.22,1.74,8.07,5.03,10.25v152.08c0,119.29-38.14,231.64-110.39,325.56-.05,0-.09-.01-.14-.02-6.22-.46-11.65,4.21-12.11,10.44-.46,6.23,4.21,11.65,10.44,12.11,6.23,.46,11.65-4.21,12.11-10.44,.11-1.51-.08-2.97-.52-4.32,35.59-46.26,63.33-97.45,82.52-152.31,20.3-58.03,30.59-118.94,30.59-181.02v-152.09c2.81-1.87,4.76-4.95,5.03-8.57,.46-6.23-4.21-11.65-10.44-12.11Z"></path><path class="cls-3" d="M1596.34,856.85c-2.34-78.5-33.51-152.49-88.41-209.26-23.39-24.18-50.09-44.25-79.47-59.77-.59-5.3-4.88-9.59-10.39-10-6.23-.46-11.65,4.21-12.11,10.44-.46,6.23,4.21,11.65,10.44,12.11,2.31,.17,4.5-.37,6.38-1.42,28.15,14.89,53.75,34.14,76.18,57.33,52.69,54.47,82.62,125.46,84.9,200.79-2.72,1.88-4.61,4.92-4.87,8.47-.46,6.23,4.21,11.65,10.44,12.11,6.23,.46,11.65-4.21,12.11-10.44,.32-4.29-1.8-8.2-5.19-10.36Z"></path><path class="cls-3" d="M1656.78,817.5c.46-6.23-4.21-11.65-10.44-12.11-6.23-.46-11.65,4.21-12.11,10.44-.34,4.56,2.09,8.69,5.86,10.75,1.44,13.17,2.19,26.52,2.19,39.8v161.5c0,30.89-3.91,61.5-11.62,91.11-4.21,1.39-7.38,5.2-7.73,9.9-.46,6.23,4.21,11.65,10.44,12.11,6.23,.46,11.65-4.21,12.11-10.44,.23-3.14-.85-6.08-2.77-8.28,8-30.69,12.06-62.39,12.06-94.4v-161.5c0-13.64-.76-27.34-2.23-40.88,2.38-1.89,4-4.73,4.24-8Z"></path><path class="cls-3" d="M1615.44,701.61c-6.23-.46-11.65,4.21-12.11,10.44-.45,6,3.88,11.24,9.77,12.02,4.68,10.88,8.83,22.03,12.41,33.32-1.45,1.74-2.39,3.93-2.57,6.36-.46,6.23,4.21,11.65,10.44,12.11,6.23,.46,11.65-4.21,12.11-10.44,.4-5.39-3.05-10.17-8.02-11.66-3.77-11.92-8.16-23.69-13.12-35.17,.85-1.44,1.4-3.09,1.53-4.88,.46-6.23-4.21-11.65-10.44-12.11Z"></path><path class="cls-3" d="M1591.09,656.7c-.28-.02-.56-.02-.84-.02-11.99-17.57-25.56-34.22-40.44-49.6-67.49-69.78-157.97-110.11-254.76-113.55-8.7-.31-17.45-.31-26.13-.02-1.88-2.63-4.87-4.43-8.35-4.69-6.23-.46-11.65,4.21-12.11,10.44-.46,6.23,4.21,11.65,10.44,12.11,4.37,.32,8.33-1.88,10.47-5.37,8.38-.28,16.83-.28,25.24,.02,93.55,3.33,180.99,42.31,246.23,109.75,14.35,14.83,27.44,30.89,39.01,47.82-.46,1.1-.77,2.29-.86,3.55-.46,6.23,4.21,11.65,10.44,12.11,6.23,.46,11.65-4.21,12.11-10.44,.46-6.23-4.21-11.65-10.44-12.11Z"></path><path class="cls-3" d="M1148.47,531.32c18.13-7.24,36.82-13,55.76-17.17,1.84,1.83,4.32,3.05,7.12,3.25,6.23,.46,11.65-4.21,12.11-10.44,.46-6.23-4.21-11.65-10.44-12.11-5.04-.37-9.54,2.61-11.33,7.06-19.57,4.31-38.88,10.24-57.62,17.71-1.64-1.18-3.61-1.95-5.77-2.11-6.23-.46-11.65,4.21-12.11,10.44-.46,6.23,4.21,11.65,10.44,12.11,5.64,.42,10.61-3.39,11.84-8.74Z"></path><path class="cls-3" d="M1072.48,629.43c-6.23-.46-11.65,4.21-12.11,10.44-.46,6.23,4.21,11.65,10.44,12.11,6.23,.46,11.65-4.21,12.11-10.44,.06-.86,.02-1.7-.1-2.52,24.07-21.18,51.18-38.29,80.73-50.9,37.44-15.97,77.16-24.07,118.08-24.07,3.61,0,7.28,.07,10.9,.19,10.62,.38,21.28,1.32,31.79,2.81,1.71,3.49,5.16,6.02,9.32,6.33,6.23,.46,11.65-4.21,12.11-10.44,.46-6.23-4.21-11.65-10.44-12.11-3.68-.27-7.07,1.26-9.33,3.84-10.91-1.54-21.98-2.52-33-2.91-3.77-.13-7.58-.2-11.34-.2-42.61,0-83.99,8.44-122.98,25.07-30.83,13.15-59.11,31.01-84.21,53.12-.63-.16-1.28-.28-1.96-.33Z"></path><path class="cls-3" d="M1184.81,624.71c-5.89-.44-11.06,3.73-11.98,9.45-27.1,12.77-51.57,30.07-72.84,51.55-48.26,48.74-74.83,113.55-74.83,182.48v118.37c-2.81,1.87-4.76,4.95-5.03,8.57-.46,6.23,4.21,11.65,10.44,12.11,6.23,.46,11.65-4.21,12.11-10.44,.31-4.22-1.74-8.07-5.03-10.25v-118.36c0-65.62,25.29-127.3,71.22-173.69,20.18-20.39,43.4-36.82,69.1-48.95,1.51,.95,3.27,1.56,5.18,1.71,6.23,.46,11.65-4.21,12.11-10.44,.46-6.23-4.21-11.65-10.44-12.11Z"></path><path class="cls-3" d="M1323.42,667.41c-3.48-.26-6.71,1.09-8.97,3.42-8.46-1.41-17.04-2.28-25.63-2.59-40.37-1.45-79.58,9.25-113.38,30.91-30.16,19.33-54.37,46.21-70.48,78.15-5.15,.73-9.28,4.95-9.69,10.35-.46,6.23,4.21,11.65,10.44,12.11,6.23,.46,11.65-4.21,12.11-10.44,.18-2.42-.42-4.71-1.59-6.65,32.77-64.79,99.36-104.56,172.15-101.95,7.98,.28,15.95,1.09,23.81,2.39,1.61,3.76,5.2,6.51,9.55,6.84,6.23,.46,11.65-4.21,12.11-10.44,.46-6.23-4.21-11.65-10.44-12.11Z"></path><path class="cls-3" d="M1411.76,713.31c-6.23-.46-11.65,4.21-12.11,10.44-.46,6.23,4.21,11.65,10.44,12.11,1.17,.09,2.32,0,3.41-.26,34.41,34.71,53.97,81.86,53.97,130.78v161.5c0,100.53-78.66,182.08-179.08,185.66-26.29,.93-51.69-3.51-75.66-13.19-.89-4.95-5.02-8.88-10.28-9.27-6.23-.46-11.65,4.21-12.11,10.44-.46,6.23,4.21,11.65,10.44,12.11,2.57,.19,4.99-.5,6.99-1.81,23.44,9.51,48.18,14.33,73.74,14.33,2.43,0,4.88-.04,7.32-.13,51.37-1.83,99.43-23.27,135.32-60.38,35.98-37.2,55.8-86.12,55.8-137.76v-161.5c0-28.31-5.87-55.67-17.45-81.32-9.89-21.91-23.48-41.57-40.44-58.56,.06-.35,.11-.71,.13-1.07,.46-6.23-4.21-11.65-10.44-12.11Z"></path><path class="cls-3" d="M1517.26,768.06c-6.23-.46-11.65,4.21-12.11,10.44-.41,5.55,3.26,10.45,8.47,11.78,8.04,24.48,12.12,50.03,12.12,76.1v97.06c-2.81,1.87-4.76,4.95-5.03,8.57-.46,6.23,4.21,11.65,10.44,12.11,6.23,.46,11.65-4.21,12.11-10.44,.31-4.22-1.74-8.07-5.03-10.25v-97.05c0-27.48-4.31-54.41-12.81-80.21,1.28-1.68,2.11-3.74,2.28-6,.46-6.23-4.21-11.65-10.44-12.11Z"></path><path class="cls-3" d="M1199.97,926.85v91.62c-2.81,1.87-4.76,4.95-5.03,8.57-.46,6.23,4.21,11.65,10.44,12.11,6.23,.46,11.65-4.21,12.11-10.44,.31-4.22-1.74-8.07-5.03-10.25v-91.61c2.81-1.87,4.76-4.95,5.03-8.57,.46-6.23-4.21-11.65-10.44-12.11-6.23-.46-11.65,4.21-12.11,10.44-.31,4.22,1.74,8.07,5.03,10.25Z"></path><path class="cls-3" d="M1267.31,781.16c-5.27-.39-9.96,2.91-11.55,7.71-32.84,10.99-55.79,42.16-55.79,77.5v9.18c-2.81,1.87-4.76,4.95-5.03,8.57-.46,6.23,4.21,11.65,10.44,12.11,6.23,.46,11.65-4.21,12.11-10.44,.31-4.22-1.74-8.07-5.03-10.25v-9.18c0-29.71,19.13-55.94,46.59-65.45,1.78,1.56,4.05,2.58,6.6,2.77,6.23,.46,11.65-4.21,12.11-10.44,.46-6.23-4.21-11.65-10.44-12.11Z"></path><path class="cls-3" d="M973.42,782.57c-.46,6.23,4.21,11.65,10.44,12.11,6.23,.46,11.65-4.21,12.11-10.44,.23-3.05-.78-5.9-2.6-8.07,10.66-34.03,27.07-65.53,48.91-93.87,.04,0,.08,.01,.12,.01,6.23,.46,11.65-4.21,12.11-10.44,.46-6.23-4.21-11.65-10.44-12.11-6.23-.46-11.65,4.21-12.11,10.44-.11,1.51,.08,2.97,.52,4.33-22.83,29.59-39.98,62.51-51.09,98.07-4.32,1.33-7.61,5.18-7.97,9.96Z"></path><path class="cls-3" d="M739.19,879.46c6.23,.46,11.65-4.21,12.11-10.44,.31-4.18-1.7-8-4.95-10.19,1.56-91.26,25.96-180.23,70.88-258.46,5.59-.31,10.21-4.71,10.64-10.44,.46-6.23-4.21-11.65-10.44-12.11-6.23-.46-11.65,4.21-12.11,10.44-.15,2.08,.27,4.06,1.13,5.8-46.02,80.11-71.01,171.22-72.6,264.67-2.85,1.86-4.84,4.97-5.11,8.62-.46,6.23,4.21,11.65,10.44,12.11Z"></path><path class="cls-3" d="M926.12,1026.32c.46-6.23-4.21-11.65-10.44-12.11-6.23-.46-11.65,4.21-12.11,10.44-.32,4.27,1.78,8.15,5.13,10.33,.49,20.95,2.69,41.84,6.56,62.21,.57,2.99,3.19,5.08,6.13,5.08,.39,0,.78-.04,1.17-.11,3.39-.64,5.61-3.91,4.97-7.3-3.73-19.66-5.86-39.81-6.34-60.03,2.75-1.87,4.66-4.93,4.92-8.51Z"></path><path class="cls-3" d="M800.75,1119.04c17.6,92.83,61.25,177.68,126.79,246.5-.14,.57-.24,1.16-.29,1.77-.46,6.23,4.21,11.65,10.44,12.11,6.23,.46,11.65-4.21,12.11-10.44,.46-6.23-4.21-11.65-10.44-12.11-.93-.07-1.83-.01-2.71,.14-63.89-67.05-106.45-149.74-123.61-240.18,1.95-1.86,3.25-4.42,3.46-7.32,.46-6.23-4.21-11.65-10.44-12.11-6.23-.46-11.65,4.21-12.11,10.44-.37,4.93,2.49,9.35,6.79,11.2Z"></path><path class="cls-3" d="M979.34,1338.42c6.23,.46,11.65-4.21,12.11-10.44,.46-6.23-4.21-11.65-10.44-12.11-.99-.07-1.95,0-2.88,.17-20.63-21.76-38.84-45.56-54.3-70.94,.6-1.24,.98-2.6,1.09-4.06,.46-6.23-4.21-11.65-10.44-12.11-6.23-.46-11.65,4.21-12.11,10.44-.46,6.23,4.21,11.65,10.44,12.11,.1,0,.19,0,.29,0,15.95,26.21,34.75,50.78,56.05,73.24-.11,.52-.2,1.05-.25,1.59-.46,6.23,4.21,11.65,10.44,12.11Z"></path><path class="cls-3" d="M1109.27,1409.56c-22.22-10.07-43.53-22.06-63.54-35.76,.15-5.99-4.41-11.1-10.45-11.55-6.23-.46-11.65,4.21-12.11,10.44-.46,6.23,4.21,11.65,10.44,12.11,1.75,.13,3.43-.16,4.96-.76,20.68,14.16,42.69,26.55,65.66,36.95,.86,5,5.01,8.96,10.29,9.35,6.23,.46,11.65-4.21,12.11-10.44,.46-6.23-4.21-11.65-10.44-12.11-2.54-.19-4.93,.49-6.92,1.76Z"></path><path class="cls-3" d="M1272.3,1446.64c-21.39-.47-42.68-2.56-63.54-6.23-1.6-3.77-5.2-6.55-9.57-6.87-6.23-.46-11.65,4.21-12.11,10.44-.46,6.23,4.21,11.65,10.44,12.11,3.47,.26,6.69-1.08,8.94-3.4,21.56,3.81,43.58,5.97,65.69,6.45,1.86,2.86,4.97,4.86,8.64,5.14,6.23,.46,11.65-4.21,12.11-10.44,.46-6.23-4.21-11.65-10.44-12.11-4.17-.31-7.98,1.69-10.17,4.92Z"></path><path class="cls-3" d="M1062.16,1256.42c6.23,.46,11.65-4.21,12.11-10.44,.46-6.23-4.21-11.65-10.44-12.11-.97-.07-1.91,0-2.83,.16-52.66-56.49-81.65-130.24-81.65-207.97v-148.46c2.81-1.87,4.76-4.95,5.03-8.57,.46-6.23-4.21-11.65-10.44-12.11-6.23-.46-11.65,4.21-12.11,10.44-.31,4.22,1.74,8.07,5.03,10.25v148.46c0,80.97,30.22,157.79,85.11,216.61-.12,.53-.22,1.08-.26,1.64-.46,6.23,4.21,11.65,10.44,12.11Z"></path><path class="cls-3" d="M1122.43,1147.03c6.23,.46,11.65-4.21,12.11-10.44,.46-6.23-4.21-11.65-10.44-12.11-.23-.02-.45-.01-.68-.02-18.03-29.52-27.52-63.35-27.52-98.4v-101.44c2.81-1.87,4.76-4.95,5.03-8.57,.46-6.23-4.21-11.65-10.44-12.11-6.23-.46-11.65,4.21-12.11,10.44-.31,4.22,1.74,8.07,5.03,10.25v101.43c0,37.47,10.18,73.62,29.5,105.16-.5,1.14-.83,2.38-.93,3.69-.46,6.23,4.21,11.65,10.44,12.11Z"></path><path class="cls-3" d="M1505.92,1160.22c.46-6.23-4.21-11.65-10.44-12.11-6.23-.46-11.65,4.21-12.11,10.44-.14,1.89,.2,3.7,.9,5.33-8.04,11.91-17.15,23.19-27.21,33.59-21.45,22.18-46.28,39.76-73.9,52.4-1.54-1-3.34-1.63-5.29-1.78-6.23-.46-11.65,4.21-12.11,10.44-.46,6.23,4.21,11.65,10.44,12.11,5.85,.43,10.99-3.66,11.97-9.32,29.12-13.3,55.29-31.81,77.88-55.17,10.62-10.98,20.24-22.88,28.71-35.47,5.82-.05,10.73-4.55,11.17-10.46Z"></path><path class="cls-3" d="M1204.66,1338.18c3.26,.24,6.29-.93,8.51-2.99,22.32,4.98,45.3,7.5,68.46,7.5,3.76,0,7.57-.07,11.34-.2,64.68-2.3,125.7-23.86,177.1-62.44,.89,.3,1.82,.51,2.8,.58,6.22,.46,11.65-4.21,12.11-10.44,.46-6.23-4.21-11.65-10.44-12.11-6.23-.46-11.65,4.21-12.11,10.44-.04,.55-.03,1.1,0,1.64-49.32,36.98-107.86,57.64-169.91,59.85-3.62,.13-7.29,.19-10.9,.19-22.16,0-44.16-2.4-65.52-7.15-1.48-4.05-5.2-7.07-9.78-7.41-6.23-.46-11.65,4.21-12.11,10.44-.46,6.23,4.21,11.65,10.44,12.11Z"></path><path class="cls-3" d="M1254.24,1637.8c6.23,.46,11.65-4.21,12.11-10.44,.46-6.23-4.21-11.65-10.44-12.11-4.3-.32-8.22,1.82-10.38,5.22-64.62-3.88-127.66-18.25-187.69-42.76-.94-4.89-5.05-8.74-10.25-9.12-6.23-.46-11.65,4.21-12.11,10.44-.46,6.23,4.21,11.65,10.44,12.11,2.62,.19,5.1-.53,7.12-1.89,61.64,25.18,126.4,39.88,192.77,43.76,1.88,2.68,4.9,4.54,8.43,4.8Z"></path><path class="cls-3" d="M1755.59,1474.12c-6.23-.46-11.65,4.21-12.11,10.44-.08,1.09,0,2.16,.22,3.18-5.16,5.19-10.41,10.3-15.69,15.27-16.42,15.45-33.77,30.17-51.66,43.83-.93-.33-1.9-.55-2.93-.63-6.23-.46-11.65,4.21-12.11,10.44-.46,6.23,4.21,11.65,10.44,12.11,6.22,.46,11.65-4.21,12.11-10.44,.04-.51,.03-1.01,0-1.5,18.26-13.93,35.96-28.94,52.71-44.71,5.4-5.08,10.77-10.31,16.04-15.61,.43,.08,.86,.15,1.31,.18,6.23,.46,11.65-4.21,12.11-10.44,.46-6.23-4.21-11.65-10.44-12.11Z"></path><path class="cls-3" d="M1779.03,1353.55c-6.23-.46-11.65,4.21-12.11,10.44-.13,1.74,.15,3.41,.75,4.93-17.79,25.24-37.69,49.31-59.29,71.63-89.92,92.96-204.08,152.74-330.67,173.27-1.88-2.06-4.51-3.44-7.5-3.66-6.23-.46-11.65,4.21-12.11,10.44-.46,6.23,4.21,11.65,10.44,12.11,4.84,.36,9.17-2.39,11.09-6.55,62.36-10.12,122.33-29.8,178.4-58.57,59.08-30.32,112.69-70.14,159.33-118.36,22.04-22.79,42.36-47.35,60.52-73.12,6,.17,11.14-4.4,11.59-10.45,.46-6.23-4.21-11.65-10.44-12.11Z"></path><path class="cls-3" d="M1649.36,1632.22c-6.23-.46-11.65,4.21-12.11,10.44,0,.08,0,.15,0,.23-3.1,1.8-6.22,3.58-9.33,5.32-48.18,26.97-99.5,48.2-152.67,63.2-1.78-1.55-4.04-2.56-6.57-2.75-6.23-.46-11.65,4.21-12.11,10.44-.46,6.23,4.21,11.65,10.44,12.11,5.29,.39,9.99-2.93,11.57-7.76,54.13-15.27,106.38-36.88,155.44-64.34,3.19-1.79,6.39-3.61,9.56-5.45,1.25,.61,2.64,1.01,4.11,1.12,6.22,.46,11.65-4.21,12.11-10.44,.46-6.23-4.21-11.65-10.44-12.11Z"></path><path class="cls-3" d="M1183.43,1690.11c3.62,.27,6.96-1.21,9.22-3.71,29.29,3.93,59.17,5.93,88.98,5.93,7.9,0,15.9-.14,23.78-.42,87.74-3.12,172.24-22.96,251.31-58.96,1.49,.92,3.21,1.51,5.08,1.65,6.23,.46,11.65-4.21,12.11-10.44,.46-6.23-4.21-11.65-10.44-12.11-5.93-.44-11.12,3.78-12,9.56-77.55,35.3-160.44,54.75-246.51,57.81-7.74,.28-15.59,.42-23.34,.42-29.19,0-58.45-1.95-87.13-5.79-1.68-3.57-5.18-6.17-9.4-6.48-6.23-.46-11.65,4.21-12.11,10.44-.46,6.23,4.21,11.65,10.44,12.11Z"></path><path class="cls-3" d="M1310.18,1792.41c-3.63-.27-6.98,1.21-9.23,3.72-6.44,.16-12.91,.25-19.31,.25-24.47,0-49.08-1.17-73.29-3.46-1.76-3.32-5.12-5.7-9.15-6-6.23-.46-11.65,4.21-12.11,10.44-.46,6.23,4.21,11.65,10.44,12.11,3.82,.28,7.32-1.37,9.58-4.12,24.63,2.33,49.66,3.52,74.54,3.52,5.82,0,11.7-.07,17.57-.21,1.71,3.47,5.16,5.98,9.3,6.29,6.23,.46,11.65-4.21,12.11-10.44,.46-6.23-4.21-11.65-10.44-12.11Z"></path><path class="cls-3" d="M1516.89,1755.29c-5.41-.4-10.21,3.08-11.68,8.08-29.16,8.83-59.08,15.97-89.16,21.27-1.87-1.99-4.45-3.32-7.39-3.53-6.23-.46-11.65,4.21-12.11,10.44-.46,6.23,4.21,11.65,10.44,12.11,4.9,.36,9.28-2.46,11.16-6.7,30.62-5.39,61.07-12.66,90.75-21.65,1.74,1.42,3.91,2.35,6.32,2.53,6.23,.46,11.65-4.21,12.11-10.44,.46-6.23-4.21-11.65-10.44-12.11Z"></path><path class="cls-3" d="M1107.68,122.62c4.82,0,8.92-3.02,10.55-7.27,42.22-9.19,85.54-14.81,129.05-16.73,2.05,2.85,5.39,4.71,9.16,4.71,6.24,0,11.3-5.06,11.3-11.3s-5.06-11.3-11.3-11.3c-4.08,0-7.65,2.17-9.64,5.42-44.26,1.95-88.34,7.66-131.3,17.02-2.03-1.95-4.78-3.15-7.82-3.15-6.24,0-11.3,5.06-11.3,11.3s5.06,11.3,11.3,11.3Z"></path></g><g><polygon class="cls-3" points="633 289.83 659.07 289.83 659.07 26.07 922.83 26.07 922.83 0 633 0 633 289.83"></polygon><polygon class="cls-3" points="1639.54 0 1639.54 26.07 1903.3 26.07 1903.3 289.83 1929.38 289.83 1929.38 0 1639.54 0"></polygon><polygon class="cls-3" points="656.07 1621.88 630 1621.88 630 1911.72 919.83 1911.72 919.83 1885.64 656.07 1885.64 656.07 1621.88"></polygon><polygon class="cls-3" points="1907.3 1885.64 1643.54 1885.64 1643.54 1911.72 1933.38 1911.72 1933.38 1621.88 1907.3 1621.88 1907.3 1885.64"></polygon></g></g><g><g class="cls-1"><rect class="cls-6" x="309.02" y="948.35" width="1945.32" height="963.37"></rect></g><rect class="cls-3" x="309.02" y="932.24" width="1945.32" height="16.11"></rect></g></g><polygon class="cls-5" points="0 1940.59 439.47 1305.33 878.93 1940.59 0 1940.59"></polygon></g><g><path class="cls-4" d="M412.33,1778c-16.85-12.6-35.51-19.89-56.24-22.03-4.19-.43-7.85,.74-11.38,3.08-5.06,3.34-10.58,5.86-16.64,6.72-6.62,.94-13.39,.71-16.5-6.34-2.87-6.51-.12-12.48,4.5-17.5,3.19-3.46,6.14-16.08,4.77-20.85-1.75-6.06-2.52-12.21,2.87-16.74,5.69-4.79,11.45-1.51,16.84,1.24,7.01,3.58,12.63,8.99,17.32,15.13,6.98,9.15,16.06,14.55,26.63,18.81,16.12,6.5,31.87,14.01,47.45,21.77,6.06,3.02,11.03,3.07,16.96,.13,11.39-5.65,22.93-11.09,34.67-15.96,16.57-6.89,31.81-15.59,44.48-28.54,3.73-3.81,7.87-7.32,12.92-9.49,5.18-2.22,10.63-6.05,15.68-.76,5.4,5.66,5.66,12.7,2.4,19.65-1.4,2.98-3.57,5.59-5.46,8.48,3.65,1.18,7.04,2.5,9.74,5.18,5.54,5.52,7.56,12.35,4.55,19.34-3.06,7.12-10.2,5.21-16.04,4.54-3.22-.37-6.8-1.5-9.32-3.44-9.46-7.31-19.14-5.67-29.21-1.88-16.55,6.24-32.85,13-49.16,22.01,17.03,11.78,34.84,20.11,52.31,29.02,4.72,2.4,9.94,.8,14.91,.79,14.55-.03,25.9,6.09,34.45,17.56,7.52,10.09,4.46,17.89-7.83,20.36-6.39,1.29-13.64-2.42-18.71-.41-5.21,2.07-1.61,11.42-5.7,16.71-5.27,6.81-11.16,8.3-18.33,3.8-10.14-6.35-16.31-15.77-19.65-27.08-8.13-27.51-31.77-36.25-54.92-45.53-3.11-1.25-5.78,.88-8.38,2.43-19.09,11.35-36.93,24.41-53.59,39.13-3.53,3.12-5.38,6.55-5.3,11.34,.05,2.94-.46,6.07-1.51,8.82-2.57,6.74-6.06,13.33-14.34,13.62-8.23,.28-13.45-5.78-15.2-12.53-2.32-8.9-7.18-10.29-15.11-10.03-7.12,.24-15.71,.96-18.06-8.7-1.47-6,6.95-14.95,15.56-17.61,1.92-.59,3.89-1.07,5.86-1.49,30.36-6.48,56.51-20.09,81.72-42.75Z"></path><path class="cls-4" d="M377.97,1643.9c10.95,2.63,12.94,8.44,12.21,16.23-1.35,14.38-.79,13.03,12.37,17.86,6.5,2.38,13.44,1.56,19.46,5,4.73,2.71,10.02-.81,14.58-1.11,7.53-.5,15.5,4.6,22.58-.45,4.64-3.3,9.08,1.15,14.67-1.07,9.63-3.82,13.03-5.46,11.59-15.48-.71-4.95-1.6-9.91-1.82-14.89-.12-2.78,1.56-5.64,4.77-5.41,4.09,.3,1.37,3.58,1.64,5.5,.33,2.31-.3,4.9,.5,6.97,6.49,16.8,1.66,29.03-13.74,38.17-5.01,2.98-8.95,8.02-12.85,12.58-16.88,19.74-42.15,18.93-56.91-2.06-3.91-5.56-8.69-10.17-14.22-14.05-10.23-7.19-14.03-16.82-10.36-28.88,1.95-6.42,.84-12.16-4.48-18.92Z"></path><path class="cls-4" d="M512.6,1543.62c-16.21-29.12-40.49-45.92-68.61-46.22-56.59-.07-96.53,42.76-92.23,93.3,1.85,21.77,6.96,42.06,33.25,47.77,9.32,2.03,12.43,9.24,9.49,18.82-1.05,3.43-1.14,7.29-.94,10.92,.2,3.77,2.49,6.98,6.58,5.22,7.72-3.34,13.69,7.09,21.3,2.19,6.58,9.75,16.33-4.23,23.23,3.11,7.07-9.59,17.12-.2,26.26-4.31,10.35-4.65,11.81-2.2,9.61-13.95-2.97-15.81-2.1-17.16,13.65-21.5,6.43-1.78,13.55-2.78,16.91-9.58,13.98-28.31,17.46-57.08,1.5-85.75Zm-110.07,75.41c-14.99-.14-24.95-7.73-25.1-19.11-.17-13.23,11.66-25.13,25.07-25.2,13.05-.07,23.2,9.81,23.3,22.68,.1,13.56-8.74,21.77-23.27,21.63Zm42.98,29.65c-5.33-1.44-10.13-2.26-15.64-.5-6.24,1.99-9.07-.43-6.55-7.27,3.28-8.89,9.14-16.24,14.5-25.71,6.45,8.73,11.07,16.71,14.48,25.48,2.85,7.32-.03,9.83-6.78,8.01Zm24.67-29.11c-12.78,.1-21.1-8.44-21.16-21.73-.06-13.23,8.87-22.85,21.45-23.12,14.04-.3,26.68,11.55,26.53,24.86-.14,11.77-11,19.87-26.82,19.99Z"></path></g></svg>